<mxfile host="app.diagrams.net" modified="2024-05-19T10:23:40.549Z" agent="Mozilla/5.0 (Macintosh; Intel Mac OS X 10_15_7) AppleWebKit/605.1.15 (KHTML, like Gecko) Version/17.2.1 Safari/605.1.15" etag="zNS63CDpuv-kCEgeACab" version="24.4.4" type="github">
  <diagram name="Page-1" id="qQqjctVp3frgQYvSFIUm">
    <mxGraphModel dx="1570" dy="1033" grid="1" gridSize="10" guides="1" tooltips="1" connect="1" arrows="1" fold="1" page="0" pageScale="1" pageWidth="827" pageHeight="1169" math="0" shadow="0">
      <root>
        <mxCell id="0" />
        <mxCell id="1" parent="0" />
        <mxCell id="O0w1MtwwYmEYep5A5iv1-1" value="&lt;font size=&quot;4&quot; face=&quot;Times New Roman&quot;&gt;&lt;span style=&quot;font-weight: 400;&quot;&gt;Агрегация новостных сюжетов&lt;/span&gt;&lt;/font&gt;" style="swimlane;html=1;childLayout=stackLayout;resizeParent=1;resizeParentMax=0;horizontal=0;startSize=20;horizontalStack=0;whiteSpace=wrap;" vertex="1" parent="1">
          <mxGeometry x="60" y="180" width="1450" height="533" as="geometry" />
        </mxCell>
        <mxCell id="O0w1MtwwYmEYep5A5iv1-2" value="" style="dashed=1;dashPattern=8 4;endArrow=blockThin;endFill=1;startArrow=oval;startFill=0;endSize=6;startSize=4;html=1;rounded=0;exitX=0.5;exitY=0;exitDx=0;exitDy=0;exitPerimeter=0;entryX=0.5;entryY=1;entryDx=0;entryDy=0;entryPerimeter=0;" edge="1" parent="O0w1MtwwYmEYep5A5iv1-1" source="O0w1MtwwYmEYep5A5iv1-32">
          <mxGeometry width="160" relative="1" as="geometry">
            <mxPoint x="335" y="90" as="sourcePoint" />
            <mxPoint x="525" y="70" as="targetPoint" />
            <Array as="points">
              <mxPoint x="555" y="80" />
              <mxPoint x="525" y="80" />
            </Array>
          </mxGeometry>
        </mxCell>
        <mxCell id="O0w1MtwwYmEYep5A5iv1-4" value="&lt;font face=&quot;Times New Roman&quot;&gt;&lt;span style=&quot;font-size: 14px; font-weight: 400;&quot;&gt;Журналист&lt;/span&gt;&lt;/font&gt;" style="swimlane;html=1;startSize=70;horizontal=0;strokeColor=default;align=center;verticalAlign=middle;fontFamily=Helvetica;fontSize=12;fontColor=default;fillColor=default;" vertex="1" parent="O0w1MtwwYmEYep5A5iv1-1">
          <mxGeometry x="20" width="1430" height="193" as="geometry" />
        </mxCell>
        <mxCell id="O0w1MtwwYmEYep5A5iv1-8" style="edgeStyle=orthogonalEdgeStyle;rounded=0;orthogonalLoop=1;jettySize=auto;html=1;exitX=1;exitY=0.5;exitDx=0;exitDy=0;exitPerimeter=0;entryX=0;entryY=0.5;entryDx=0;entryDy=0;entryPerimeter=0;" edge="1" parent="O0w1MtwwYmEYep5A5iv1-4" source="O0w1MtwwYmEYep5A5iv1-5">
          <mxGeometry relative="1" as="geometry">
            <mxPoint x="134" y="55.5" as="targetPoint" />
          </mxGeometry>
        </mxCell>
        <mxCell id="O0w1MtwwYmEYep5A5iv1-9" style="edgeStyle=orthogonalEdgeStyle;rounded=0;orthogonalLoop=1;jettySize=auto;html=1;exitX=1;exitY=0.5;exitDx=0;exitDy=0;exitPerimeter=0;entryX=0;entryY=0.5;entryDx=0;entryDy=0;entryPerimeter=0;" edge="1" parent="O0w1MtwwYmEYep5A5iv1-4" target="O0w1MtwwYmEYep5A5iv1-7">
          <mxGeometry relative="1" as="geometry">
            <mxPoint x="237" y="55.5" as="sourcePoint" />
          </mxGeometry>
        </mxCell>
        <mxCell id="O0w1MtwwYmEYep5A5iv1-17" style="edgeStyle=orthogonalEdgeStyle;rounded=0;orthogonalLoop=1;jettySize=auto;html=1;exitX=1;exitY=0.5;exitDx=0;exitDy=0;exitPerimeter=0;entryX=0;entryY=0.5;entryDx=0;entryDy=0;entryPerimeter=0;" edge="1" parent="O0w1MtwwYmEYep5A5iv1-4" target="O0w1MtwwYmEYep5A5iv1-14">
          <mxGeometry relative="1" as="geometry">
            <mxPoint x="1120" y="75" as="sourcePoint" />
          </mxGeometry>
        </mxCell>
        <mxCell id="O0w1MtwwYmEYep5A5iv1-19" style="edgeStyle=orthogonalEdgeStyle;rounded=0;orthogonalLoop=1;jettySize=auto;html=1;exitX=1;exitY=0.5;exitDx=0;exitDy=0;exitPerimeter=0;entryX=0;entryY=0.5;entryDx=0;entryDy=0;entryPerimeter=0;" edge="1" parent="O0w1MtwwYmEYep5A5iv1-4" target="O0w1MtwwYmEYep5A5iv1-18">
          <mxGeometry relative="1" as="geometry">
            <mxPoint x="1320" y="75" as="sourcePoint" />
          </mxGeometry>
        </mxCell>
        <mxCell id="O0w1MtwwYmEYep5A5iv1-23" style="edgeStyle=orthogonalEdgeStyle;rounded=0;orthogonalLoop=1;jettySize=auto;html=1;exitX=0;exitY=0.5;exitDx=0;exitDy=0;exitPerimeter=0;entryX=0.5;entryY=1;entryDx=0;entryDy=0;entryPerimeter=0;" edge="1" parent="O0w1MtwwYmEYep5A5iv1-4" source="O0w1MtwwYmEYep5A5iv1-10">
          <mxGeometry relative="1" as="geometry">
            <mxPoint x="425" y="55" as="targetPoint" />
          </mxGeometry>
        </mxCell>
        <mxCell id="O0w1MtwwYmEYep5A5iv1-25" style="edgeStyle=orthogonalEdgeStyle;rounded=0;orthogonalLoop=1;jettySize=auto;html=1;exitX=0;exitY=0.5;exitDx=0;exitDy=0;exitPerimeter=0;entryX=1;entryY=0.5;entryDx=0;entryDy=0;entryPerimeter=0;" edge="1" parent="O0w1MtwwYmEYep5A5iv1-4" target="O0w1MtwwYmEYep5A5iv1-24">
          <mxGeometry relative="1" as="geometry">
            <mxPoint x="1010" y="75" as="sourcePoint" />
          </mxGeometry>
        </mxCell>
        <mxCell id="O0w1MtwwYmEYep5A5iv1-54" value="" style="points=[[0.145,0.145,0],[0.5,0,0],[0.855,0.145,0],[1,0.5,0],[0.855,0.855,0],[0.5,1,0],[0.145,0.855,0],[0,0.5,0]];shape=mxgraph.bpmn.event;html=1;verticalLabelPosition=bottom;labelBackgroundColor=#ffffff;verticalAlign=middle;align=center;perimeter=ellipsePerimeter;outlineConnect=0;aspect=fixed;outline=standard;symbol=general;strokeColor=default;fontFamily=Helvetica;fontSize=12;fontColor=default;fillColor=default;" vertex="1" parent="O0w1MtwwYmEYep5A5iv1-4">
          <mxGeometry x="80" y="40" width="30" height="30" as="geometry" />
        </mxCell>
        <mxCell id="O0w1MtwwYmEYep5A5iv1-55" value="&lt;font face=&quot;Times New Roman&quot;&gt;&lt;span style=&quot;font-size: 14px;&quot;&gt;Запросить&lt;/span&gt;&lt;/font&gt;&lt;div&gt;&lt;font face=&quot;Times New Roman&quot;&gt;&lt;span style=&quot;font-size: 14px;&quot;&gt;новостной документ&lt;/span&gt;&lt;/font&gt;&lt;/div&gt;" style="points=[[0.25,0,0],[0.5,0,0],[0.75,0,0],[1,0.25,0],[1,0.5,0],[1,0.75,0],[0.75,1,0],[0.5,1,0],[0.25,1,0],[0,0.75,0],[0,0.5,0],[0,0.25,0]];shape=mxgraph.bpmn.task;whiteSpace=wrap;rectStyle=rounded;size=10;html=1;container=1;expand=0;collapsible=0;taskMarker=abstract;strokeColor=default;align=center;verticalAlign=middle;fontFamily=Helvetica;fontSize=12;fontColor=default;fillColor=default;" vertex="1" parent="O0w1MtwwYmEYep5A5iv1-4">
          <mxGeometry x="130" y="28.5" width="103" height="53" as="geometry" />
        </mxCell>
        <mxCell id="O0w1MtwwYmEYep5A5iv1-56" style="edgeStyle=orthogonalEdgeStyle;rounded=0;orthogonalLoop=1;jettySize=auto;html=1;exitX=1;exitY=0.5;exitDx=0;exitDy=0;exitPerimeter=0;entryX=0;entryY=0.5;entryDx=0;entryDy=0;entryPerimeter=0;" edge="1" parent="O0w1MtwwYmEYep5A5iv1-4" source="O0w1MtwwYmEYep5A5iv1-54" target="O0w1MtwwYmEYep5A5iv1-55">
          <mxGeometry relative="1" as="geometry" />
        </mxCell>
        <mxCell id="O0w1MtwwYmEYep5A5iv1-68" value="&lt;font face=&quot;Times New Roman&quot;&gt;Сообщение&lt;/font&gt;&lt;div&gt;&lt;font face=&quot;McqlFw983JeXHa3LTNOP&quot;&gt;об отказе&lt;/font&gt;&lt;/div&gt;" style="points=[[0.145,0.145,0],[0.5,0,0],[0.855,0.145,0],[1,0.5,0],[0.855,0.855,0],[0.5,1,0],[0.145,0.855,0],[0,0.5,0]];shape=mxgraph.bpmn.event;html=1;verticalLabelPosition=top;labelBackgroundColor=#ffffff;verticalAlign=bottom;align=center;perimeter=ellipsePerimeter;outlineConnect=0;aspect=fixed;outline=throwing;symbol=message;labelPosition=center;" vertex="1" parent="O0w1MtwwYmEYep5A5iv1-4">
          <mxGeometry x="340" y="40" width="30" height="30" as="geometry" />
        </mxCell>
        <mxCell id="O0w1MtwwYmEYep5A5iv1-73" value="" style="points=[[0.145,0.145,0],[0.5,0,0],[0.855,0.145,0],[1,0.5,0],[0.855,0.855,0],[0.5,1,0],[0.145,0.855,0],[0,0.5,0]];shape=mxgraph.bpmn.event;html=1;verticalLabelPosition=bottom;labelBackgroundColor=#ffffff;verticalAlign=top;align=center;perimeter=ellipsePerimeter;outlineConnect=0;aspect=fixed;outline=end;symbol=cancel;" vertex="1" parent="O0w1MtwwYmEYep5A5iv1-4">
          <mxGeometry x="270" y="40" width="30" height="30" as="geometry" />
        </mxCell>
        <mxCell id="O0w1MtwwYmEYep5A5iv1-74" style="edgeStyle=orthogonalEdgeStyle;rounded=0;orthogonalLoop=1;jettySize=auto;html=1;exitX=0;exitY=0.5;exitDx=0;exitDy=0;exitPerimeter=0;entryX=1;entryY=0.5;entryDx=0;entryDy=0;entryPerimeter=0;" edge="1" parent="O0w1MtwwYmEYep5A5iv1-4" source="O0w1MtwwYmEYep5A5iv1-68" target="O0w1MtwwYmEYep5A5iv1-73">
          <mxGeometry relative="1" as="geometry" />
        </mxCell>
        <mxCell id="O0w1MtwwYmEYep5A5iv1-75" value="&lt;font face=&quot;Times New Roman&quot;&gt;Новостной&lt;/font&gt;&lt;div&gt;&lt;font face=&quot;ooApfUwmyKIRAOGGmHdr&quot;&gt;документ&lt;/font&gt;&lt;/div&gt;" style="points=[[0.145,0.145,0],[0.5,0,0],[0.855,0.145,0],[1,0.5,0],[0.855,0.855,0],[0.5,1,0],[0.145,0.855,0],[0,0.5,0]];shape=mxgraph.bpmn.event;html=1;verticalLabelPosition=top;labelBackgroundColor=#ffffff;verticalAlign=bottom;align=center;perimeter=ellipsePerimeter;outlineConnect=0;aspect=fixed;outline=standard;symbol=message;labelPosition=center;" vertex="1" parent="O0w1MtwwYmEYep5A5iv1-4">
          <mxGeometry x="500" y="40" width="30" height="30" as="geometry" />
        </mxCell>
        <mxCell id="O0w1MtwwYmEYep5A5iv1-80" value="&lt;font face=&quot;Times New Roman&quot;&gt;&lt;span style=&quot;font-size: 14px;&quot;&gt;Инициировать проверку документа&lt;/span&gt;&lt;/font&gt;" style="points=[[0.25,0,0],[0.5,0,0],[0.75,0,0],[1,0.25,0],[1,0.5,0],[1,0.75,0],[0.75,1,0],[0.5,1,0],[0.25,1,0],[0,0.75,0],[0,0.5,0],[0,0.25,0]];shape=mxgraph.bpmn.task;whiteSpace=wrap;rectStyle=rounded;size=10;html=1;container=1;expand=0;collapsible=0;taskMarker=abstract;strokeColor=default;align=center;verticalAlign=middle;fontFamily=Helvetica;fontSize=12;fontColor=default;fillColor=default;" vertex="1" parent="O0w1MtwwYmEYep5A5iv1-4">
          <mxGeometry x="580" y="28.5" width="103" height="53" as="geometry" />
        </mxCell>
        <mxCell id="O0w1MtwwYmEYep5A5iv1-81" style="edgeStyle=orthogonalEdgeStyle;rounded=0;orthogonalLoop=1;jettySize=auto;html=1;exitX=1;exitY=0.5;exitDx=0;exitDy=0;exitPerimeter=0;entryX=0;entryY=0.5;entryDx=0;entryDy=0;entryPerimeter=0;" edge="1" parent="O0w1MtwwYmEYep5A5iv1-4" source="O0w1MtwwYmEYep5A5iv1-75" target="O0w1MtwwYmEYep5A5iv1-80">
          <mxGeometry relative="1" as="geometry" />
        </mxCell>
        <mxCell id="O0w1MtwwYmEYep5A5iv1-188" value="&lt;font face=&quot;Times New Roman&quot;&gt;Аннотированный&lt;/font&gt;&lt;div&gt;&lt;font face=&quot;Times New Roman&quot;&gt;документ&lt;/font&gt;&lt;/div&gt;" style="points=[[0.145,0.145,0],[0.5,0,0],[0.855,0.145,0],[1,0.5,0],[0.855,0.855,0],[0.5,1,0],[0.145,0.855,0],[0,0.5,0]];shape=mxgraph.bpmn.event;html=1;verticalLabelPosition=top;labelBackgroundColor=#ffffff;verticalAlign=bottom;align=center;perimeter=ellipsePerimeter;outlineConnect=0;aspect=fixed;outline=standard;symbol=message;labelPosition=center;" vertex="1" parent="O0w1MtwwYmEYep5A5iv1-4">
          <mxGeometry x="860" y="81.5" width="30" height="30" as="geometry" />
        </mxCell>
        <mxCell id="O0w1MtwwYmEYep5A5iv1-190" value="&lt;font face=&quot;Times New Roman&quot;&gt;&lt;span style=&quot;font-size: 14px;&quot;&gt;Проставить кластер документа&lt;/span&gt;&lt;/font&gt;" style="points=[[0.25,0,0],[0.5,0,0],[0.75,0,0],[1,0.25,0],[1,0.5,0],[1,0.75,0],[0.75,1,0],[0.5,1,0],[0.25,1,0],[0,0.75,0],[0,0.5,0],[0,0.25,0]];shape=mxgraph.bpmn.task;whiteSpace=wrap;rectStyle=rounded;size=10;html=1;container=1;expand=0;collapsible=0;taskMarker=abstract;strokeColor=default;align=center;verticalAlign=middle;fontFamily=Helvetica;fontSize=12;fontColor=default;fillColor=default;" vertex="1" parent="O0w1MtwwYmEYep5A5iv1-4">
          <mxGeometry x="950" y="70" width="103" height="53" as="geometry" />
        </mxCell>
        <mxCell id="O0w1MtwwYmEYep5A5iv1-191" style="edgeStyle=orthogonalEdgeStyle;rounded=0;orthogonalLoop=1;jettySize=auto;html=1;exitX=1;exitY=0.5;exitDx=0;exitDy=0;exitPerimeter=0;entryX=0;entryY=0.5;entryDx=0;entryDy=0;entryPerimeter=0;" edge="1" parent="O0w1MtwwYmEYep5A5iv1-4" source="O0w1MtwwYmEYep5A5iv1-188" target="O0w1MtwwYmEYep5A5iv1-190">
          <mxGeometry relative="1" as="geometry" />
        </mxCell>
        <mxCell id="O0w1MtwwYmEYep5A5iv1-193" value="" style="points=[[0.25,0.25,0],[0.5,0,0],[0.75,0.25,0],[1,0.5,0],[0.75,0.75,0],[0.5,1,0],[0.25,0.75,0],[0,0.5,0]];shape=mxgraph.bpmn.gateway2;html=1;verticalLabelPosition=bottom;labelBackgroundColor=#ffffff;verticalAlign=top;align=center;perimeter=rhombusPerimeter;outlineConnect=0;outline=none;symbol=none;" vertex="1" parent="O0w1MtwwYmEYep5A5iv1-4">
          <mxGeometry x="1090" y="71.5" width="50" height="50" as="geometry" />
        </mxCell>
        <mxCell id="O0w1MtwwYmEYep5A5iv1-194" style="edgeStyle=orthogonalEdgeStyle;rounded=0;orthogonalLoop=1;jettySize=auto;html=1;exitX=1;exitY=0.5;exitDx=0;exitDy=0;exitPerimeter=0;entryX=0;entryY=0.5;entryDx=0;entryDy=0;entryPerimeter=0;" edge="1" parent="O0w1MtwwYmEYep5A5iv1-4" source="O0w1MtwwYmEYep5A5iv1-190" target="O0w1MtwwYmEYep5A5iv1-193">
          <mxGeometry relative="1" as="geometry" />
        </mxCell>
        <mxCell id="O0w1MtwwYmEYep5A5iv1-195" value="&lt;font face=&quot;Times New Roman&quot;&gt;&lt;span style=&quot;font-size: 14px;&quot;&gt;Добавить документ в кластер&lt;/span&gt;&lt;/font&gt;" style="points=[[0.25,0,0],[0.5,0,0],[0.75,0,0],[1,0.25,0],[1,0.5,0],[1,0.75,0],[0.75,1,0],[0.5,1,0],[0.25,1,0],[0,0.75,0],[0,0.5,0],[0,0.25,0]];shape=mxgraph.bpmn.task;whiteSpace=wrap;rectStyle=rounded;size=10;html=1;container=1;expand=0;collapsible=0;taskMarker=abstract;strokeColor=default;align=center;verticalAlign=middle;fontFamily=Helvetica;fontSize=12;fontColor=default;fillColor=default;" vertex="1" parent="O0w1MtwwYmEYep5A5iv1-4">
          <mxGeometry x="1230" y="18.5" width="103" height="53" as="geometry" />
        </mxCell>
        <mxCell id="O0w1MtwwYmEYep5A5iv1-199" style="edgeStyle=orthogonalEdgeStyle;rounded=0;orthogonalLoop=1;jettySize=auto;html=1;exitX=0.5;exitY=0;exitDx=0;exitDy=0;exitPerimeter=0;entryX=0;entryY=0.5;entryDx=0;entryDy=0;entryPerimeter=0;" edge="1" parent="O0w1MtwwYmEYep5A5iv1-4" source="O0w1MtwwYmEYep5A5iv1-193" target="O0w1MtwwYmEYep5A5iv1-195">
          <mxGeometry relative="1" as="geometry" />
        </mxCell>
        <mxCell id="O0w1MtwwYmEYep5A5iv1-208" value="Существующий&lt;div&gt;кластер&lt;/div&gt;" style="edgeLabel;html=1;align=center;verticalAlign=middle;resizable=0;points=[];fontFamily=Times New Roman;" vertex="1" connectable="0" parent="O0w1MtwwYmEYep5A5iv1-199">
          <mxGeometry x="0.0271" relative="1" as="geometry">
            <mxPoint as="offset" />
          </mxGeometry>
        </mxCell>
        <mxCell id="O0w1MtwwYmEYep5A5iv1-203" value="&lt;font face=&quot;Times New Roman&quot;&gt;&lt;span style=&quot;font-size: 14px;&quot;&gt;Создать&lt;/span&gt;&lt;/font&gt;&lt;div&gt;&lt;font face=&quot;Times New Roman&quot;&gt;&lt;span style=&quot;font-size: 14px;&quot;&gt;новый&lt;br&gt;&lt;/span&gt;&lt;/font&gt;&lt;div&gt;&lt;font face=&quot;Times New Roman&quot;&gt;&lt;span style=&quot;font-size: 14px;&quot;&gt;кластер&lt;/span&gt;&lt;/font&gt;&lt;/div&gt;&lt;/div&gt;" style="points=[[0.25,0,0],[0.5,0,0],[0.75,0,0],[1,0.25,0],[1,0.5,0],[1,0.75,0],[0.75,1,0],[0.5,1,0],[0.25,1,0],[0,0.75,0],[0,0.5,0],[0,0.25,0]];shape=mxgraph.bpmn.task;whiteSpace=wrap;rectStyle=rounded;size=10;html=1;container=1;expand=0;collapsible=0;taskMarker=abstract;strokeColor=default;align=center;verticalAlign=middle;fontFamily=Helvetica;fontSize=12;fontColor=default;fillColor=default;" vertex="1" parent="O0w1MtwwYmEYep5A5iv1-4">
          <mxGeometry x="1230" y="121.5" width="103" height="53" as="geometry" />
        </mxCell>
        <mxCell id="O0w1MtwwYmEYep5A5iv1-204" style="edgeStyle=orthogonalEdgeStyle;rounded=0;orthogonalLoop=1;jettySize=auto;html=1;exitX=0.5;exitY=1;exitDx=0;exitDy=0;exitPerimeter=0;entryX=0;entryY=0.5;entryDx=0;entryDy=0;entryPerimeter=0;" edge="1" parent="O0w1MtwwYmEYep5A5iv1-4" source="O0w1MtwwYmEYep5A5iv1-193" target="O0w1MtwwYmEYep5A5iv1-203">
          <mxGeometry relative="1" as="geometry" />
        </mxCell>
        <mxCell id="O0w1MtwwYmEYep5A5iv1-209" value="&lt;font face=&quot;Times New Roman&quot;&gt;Новый&lt;/font&gt;&lt;div&gt;&lt;font face=&quot;ysX4khGC-eQxfFi1XvMY&quot;&gt;кластер&lt;/font&gt;&lt;/div&gt;" style="edgeLabel;html=1;align=center;verticalAlign=middle;resizable=0;points=[];" vertex="1" connectable="0" parent="O0w1MtwwYmEYep5A5iv1-204">
          <mxGeometry x="0.0153" y="-1" relative="1" as="geometry">
            <mxPoint as="offset" />
          </mxGeometry>
        </mxCell>
        <mxCell id="O0w1MtwwYmEYep5A5iv1-205" style="edgeStyle=orthogonalEdgeStyle;rounded=0;orthogonalLoop=1;jettySize=auto;html=1;exitX=0.5;exitY=0;exitDx=0;exitDy=0;exitPerimeter=0;entryX=0.5;entryY=1;entryDx=0;entryDy=0;entryPerimeter=0;" edge="1" parent="O0w1MtwwYmEYep5A5iv1-4" source="O0w1MtwwYmEYep5A5iv1-203" target="O0w1MtwwYmEYep5A5iv1-195">
          <mxGeometry relative="1" as="geometry" />
        </mxCell>
        <mxCell id="O0w1MtwwYmEYep5A5iv1-206" value="" style="points=[[0.145,0.145,0],[0.5,0,0],[0.855,0.145,0],[1,0.5,0],[0.855,0.855,0],[0.5,1,0],[0.145,0.855,0],[0,0.5,0]];shape=mxgraph.bpmn.event;html=1;verticalLabelPosition=bottom;labelBackgroundColor=#ffffff;verticalAlign=top;align=center;perimeter=ellipsePerimeter;outlineConnect=0;aspect=fixed;outline=end;symbol=terminate2;" vertex="1" parent="O0w1MtwwYmEYep5A5iv1-4">
          <mxGeometry x="1371.9986597938146" y="32.01" width="25.97938144329897" height="25.97938144329897" as="geometry" />
        </mxCell>
        <mxCell id="O0w1MtwwYmEYep5A5iv1-207" style="edgeStyle=orthogonalEdgeStyle;rounded=0;orthogonalLoop=1;jettySize=auto;html=1;exitX=1;exitY=0.5;exitDx=0;exitDy=0;exitPerimeter=0;entryX=0;entryY=0.5;entryDx=0;entryDy=0;entryPerimeter=0;" edge="1" parent="O0w1MtwwYmEYep5A5iv1-4" source="O0w1MtwwYmEYep5A5iv1-195" target="O0w1MtwwYmEYep5A5iv1-206">
          <mxGeometry relative="1" as="geometry" />
        </mxCell>
        <mxCell id="O0w1MtwwYmEYep5A5iv1-28" value="&lt;font face=&quot;Times New Roman&quot;&gt;&lt;span style=&quot;font-size: 14px; font-weight: 400;&quot;&gt;Новостное&lt;/span&gt;&lt;/font&gt;&lt;div&gt;&lt;font face=&quot;Times New Roman&quot;&gt;&lt;span style=&quot;font-size: 14px; font-weight: 400;&quot;&gt;агентство&lt;/span&gt;&lt;/font&gt;&lt;/div&gt;" style="swimlane;html=1;startSize=70;horizontal=0;strokeColor=default;" vertex="1" parent="O0w1MtwwYmEYep5A5iv1-1">
          <mxGeometry x="20" y="193" width="1430" height="120" as="geometry" />
        </mxCell>
        <mxCell id="O0w1MtwwYmEYep5A5iv1-29" style="edgeStyle=orthogonalEdgeStyle;rounded=0;orthogonalLoop=1;jettySize=auto;html=1;exitX=1;exitY=0.5;exitDx=0;exitDy=0;exitPerimeter=0;" edge="1" parent="O0w1MtwwYmEYep5A5iv1-28" source="O0w1MtwwYmEYep5A5iv1-30">
          <mxGeometry relative="1" as="geometry">
            <mxPoint x="360" y="60" as="targetPoint" />
          </mxGeometry>
        </mxCell>
        <mxCell id="O0w1MtwwYmEYep5A5iv1-33" style="edgeStyle=orthogonalEdgeStyle;rounded=0;orthogonalLoop=1;jettySize=auto;html=1;exitX=1;exitY=0.5;exitDx=0;exitDy=0;exitPerimeter=0;entryX=0;entryY=0.5;entryDx=0;entryDy=0;entryPerimeter=0;" edge="1" parent="O0w1MtwwYmEYep5A5iv1-28" target="O0w1MtwwYmEYep5A5iv1-32">
          <mxGeometry relative="1" as="geometry">
            <mxPoint x="450" y="60" as="sourcePoint" />
          </mxGeometry>
        </mxCell>
        <mxCell id="O0w1MtwwYmEYep5A5iv1-57" value="&lt;font face=&quot;Times New Roman&quot;&gt;Запрос документа&lt;/font&gt;" style="points=[[0.145,0.145,0],[0.5,0,0],[0.855,0.145,0],[1,0.5,0],[0.855,0.855,0],[0.5,1,0],[0.145,0.855,0],[0,0.5,0]];shape=mxgraph.bpmn.event;html=1;verticalLabelPosition=bottom;labelBackgroundColor=#ffffff;verticalAlign=top;align=center;perimeter=ellipsePerimeter;outlineConnect=0;aspect=fixed;outline=standard;symbol=message;" vertex="1" parent="O0w1MtwwYmEYep5A5iv1-28">
          <mxGeometry x="166.5" y="45" width="30" height="30" as="geometry" />
        </mxCell>
        <mxCell id="O0w1MtwwYmEYep5A5iv1-60" value="&lt;font face=&quot;Times New Roman&quot;&gt;&lt;span style=&quot;font-size: 14px;&quot;&gt;Проверить наличие партнерства&lt;/span&gt;&lt;/font&gt;" style="points=[[0.25,0,0],[0.5,0,0],[0.75,0,0],[1,0.25,0],[1,0.5,0],[1,0.75,0],[0.75,1,0],[0.5,1,0],[0.25,1,0],[0,0.75,0],[0,0.5,0],[0,0.25,0]];shape=mxgraph.bpmn.task;whiteSpace=wrap;rectStyle=rounded;size=10;html=1;container=1;expand=0;collapsible=0;taskMarker=abstract;strokeColor=default;align=center;verticalAlign=middle;fontFamily=Helvetica;fontSize=12;fontColor=default;fillColor=default;" vertex="1" parent="O0w1MtwwYmEYep5A5iv1-28">
          <mxGeometry x="250" y="33.5" width="103" height="53" as="geometry" />
        </mxCell>
        <mxCell id="O0w1MtwwYmEYep5A5iv1-61" style="edgeStyle=orthogonalEdgeStyle;rounded=0;orthogonalLoop=1;jettySize=auto;html=1;exitX=1;exitY=0.5;exitDx=0;exitDy=0;exitPerimeter=0;entryX=0;entryY=0.5;entryDx=0;entryDy=0;entryPerimeter=0;" edge="1" parent="O0w1MtwwYmEYep5A5iv1-28" source="O0w1MtwwYmEYep5A5iv1-57" target="O0w1MtwwYmEYep5A5iv1-60">
          <mxGeometry relative="1" as="geometry" />
        </mxCell>
        <mxCell id="O0w1MtwwYmEYep5A5iv1-62" value="" style="points=[[0.25,0.25,0],[0.5,0,0],[0.75,0.25,0],[1,0.5,0],[0.75,0.75,0],[0.5,1,0],[0.25,0.75,0],[0,0.5,0]];shape=mxgraph.bpmn.gateway2;html=1;verticalLabelPosition=bottom;labelBackgroundColor=#ffffff;verticalAlign=top;align=center;perimeter=rhombusPerimeter;outlineConnect=0;outline=none;symbol=none;gwType=exclusive;" vertex="1" parent="O0w1MtwwYmEYep5A5iv1-28">
          <mxGeometry x="390" y="35" width="50" height="50" as="geometry" />
        </mxCell>
        <mxCell id="O0w1MtwwYmEYep5A5iv1-63" style="edgeStyle=orthogonalEdgeStyle;rounded=0;orthogonalLoop=1;jettySize=auto;html=1;exitX=1;exitY=0.5;exitDx=0;exitDy=0;exitPerimeter=0;entryX=0;entryY=0.5;entryDx=0;entryDy=0;entryPerimeter=0;" edge="1" parent="O0w1MtwwYmEYep5A5iv1-28" source="O0w1MtwwYmEYep5A5iv1-60" target="O0w1MtwwYmEYep5A5iv1-62">
          <mxGeometry relative="1" as="geometry" />
        </mxCell>
        <mxCell id="O0w1MtwwYmEYep5A5iv1-46" value="" style="dashed=1;dashPattern=8 4;endArrow=blockThin;endFill=1;startArrow=oval;startFill=0;endSize=6;startSize=4;html=1;rounded=0;exitX=0.5;exitY=1;exitDx=0;exitDy=0;exitPerimeter=0;entryX=0.5;entryY=0;entryDx=0;entryDy=0;entryPerimeter=0;" edge="1" parent="O0w1MtwwYmEYep5A5iv1-1" target="O0w1MtwwYmEYep5A5iv1-30">
          <mxGeometry width="160" relative="1" as="geometry">
            <mxPoint x="331.5" y="83" as="sourcePoint" />
            <mxPoint x="325" y="140" as="targetPoint" />
          </mxGeometry>
        </mxCell>
        <mxCell id="O0w1MtwwYmEYep5A5iv1-47" value="" style="dashed=1;dashPattern=8 4;endArrow=blockThin;endFill=1;startArrow=oval;startFill=0;endSize=6;startSize=4;html=1;rounded=0;exitX=0.464;exitY=0.994;exitDx=0;exitDy=0;exitPerimeter=0;entryX=0.5;entryY=0;entryDx=0;entryDy=0;entryPerimeter=0;" edge="1" parent="O0w1MtwwYmEYep5A5iv1-1" target="O0w1MtwwYmEYep5A5iv1-40">
          <mxGeometry width="160" relative="1" as="geometry">
            <mxPoint x="780.6799999999998" y="85.63400000000001" as="sourcePoint" />
            <mxPoint x="335" y="165" as="targetPoint" />
          </mxGeometry>
        </mxCell>
        <mxCell id="O0w1MtwwYmEYep5A5iv1-48" value="" style="dashed=1;dashPattern=8 4;endArrow=blockThin;endFill=1;startArrow=oval;startFill=0;endSize=6;startSize=4;html=1;rounded=0;exitX=1;exitY=0.5;exitDx=0;exitDy=0;exitPerimeter=0;entryX=0.5;entryY=1;entryDx=0;entryDy=0;entryPerimeter=0;" edge="1" parent="O0w1MtwwYmEYep5A5iv1-1" target="O0w1MtwwYmEYep5A5iv1-15">
          <mxGeometry width="160" relative="1" as="geometry">
            <mxPoint x="1070" y="265" as="sourcePoint" />
            <mxPoint x="1279" y="100" as="targetPoint" />
            <Array as="points">
              <mxPoint x="1125" y="265" />
            </Array>
          </mxGeometry>
        </mxCell>
        <mxCell id="O0w1MtwwYmEYep5A5iv1-59" value="" style="dashed=1;dashPattern=8 4;endArrow=blockThin;endFill=1;startArrow=oval;startFill=0;endSize=6;startSize=4;html=1;rounded=0;exitX=0.5;exitY=1;exitDx=0;exitDy=0;exitPerimeter=0;entryX=0.5;entryY=0;entryDx=0;entryDy=0;entryPerimeter=0;" edge="1" parent="O0w1MtwwYmEYep5A5iv1-1" source="O0w1MtwwYmEYep5A5iv1-55" target="O0w1MtwwYmEYep5A5iv1-57">
          <mxGeometry width="160" relative="1" as="geometry">
            <mxPoint x="350" y="310" as="sourcePoint" />
            <mxPoint x="510" y="310" as="targetPoint" />
          </mxGeometry>
        </mxCell>
        <mxCell id="O0w1MtwwYmEYep5A5iv1-69" value="" style="dashed=1;dashPattern=8 4;endArrow=blockThin;endFill=1;startArrow=oval;startFill=0;endSize=6;startSize=4;html=1;rounded=0;exitX=0.5;exitY=0;exitDx=0;exitDy=0;exitPerimeter=0;entryX=0.5;entryY=1;entryDx=0;entryDy=0;entryPerimeter=0;edgeStyle=orthogonalEdgeStyle;" edge="1" parent="O0w1MtwwYmEYep5A5iv1-1" source="O0w1MtwwYmEYep5A5iv1-62" target="O0w1MtwwYmEYep5A5iv1-68">
          <mxGeometry width="160" relative="1" as="geometry">
            <mxPoint x="212" y="91" as="sourcePoint" />
            <mxPoint x="212" y="165" as="targetPoint" />
            <Array as="points">
              <mxPoint x="435" y="90" />
              <mxPoint x="375" y="90" />
            </Array>
          </mxGeometry>
        </mxCell>
        <mxCell id="O0w1MtwwYmEYep5A5iv1-201" value="&lt;font face=&quot;Times New Roman&quot;&gt;Не партнер&lt;/font&gt;" style="edgeLabel;html=1;align=center;verticalAlign=middle;resizable=0;points=[];" vertex="1" connectable="0" parent="O0w1MtwwYmEYep5A5iv1-69">
          <mxGeometry x="-0.2141" relative="1" as="geometry">
            <mxPoint as="offset" />
          </mxGeometry>
        </mxCell>
        <mxCell id="O0w1MtwwYmEYep5A5iv1-76" value="" style="dashed=1;dashPattern=8 4;endArrow=blockThin;endFill=1;startArrow=oval;startFill=0;endSize=6;startSize=4;html=1;rounded=0;exitX=1;exitY=0.5;exitDx=0;exitDy=0;exitPerimeter=0;entryX=0.5;entryY=1;entryDx=0;entryDy=0;entryPerimeter=0;edgeStyle=orthogonalEdgeStyle;" edge="1" parent="O0w1MtwwYmEYep5A5iv1-1" source="O0w1MtwwYmEYep5A5iv1-62" target="O0w1MtwwYmEYep5A5iv1-75">
          <mxGeometry width="160" relative="1" as="geometry">
            <mxPoint x="212" y="91" as="sourcePoint" />
            <mxPoint x="212" y="165" as="targetPoint" />
          </mxGeometry>
        </mxCell>
        <mxCell id="O0w1MtwwYmEYep5A5iv1-202" value="&lt;font face=&quot;Times New Roman&quot;&gt;Партнер&lt;/font&gt;" style="edgeLabel;html=1;align=center;verticalAlign=middle;resizable=0;points=[];" vertex="1" connectable="0" parent="O0w1MtwwYmEYep5A5iv1-76">
          <mxGeometry x="0.4264" relative="1" as="geometry">
            <mxPoint as="offset" />
          </mxGeometry>
        </mxCell>
        <mxCell id="O0w1MtwwYmEYep5A5iv1-83" value="" style="dashed=1;dashPattern=8 4;endArrow=blockThin;endFill=1;startArrow=oval;startFill=0;endSize=6;startSize=4;html=1;rounded=0;exitX=0.5;exitY=1;exitDx=0;exitDy=0;exitPerimeter=0;entryX=0.5;entryY=0;entryDx=0;entryDy=0;entryPerimeter=0;edgeStyle=orthogonalEdgeStyle;" edge="1" parent="O0w1MtwwYmEYep5A5iv1-1" source="O0w1MtwwYmEYep5A5iv1-80" target="O0w1MtwwYmEYep5A5iv1-82">
          <mxGeometry width="160" relative="1" as="geometry">
            <mxPoint x="470" y="180" as="sourcePoint" />
            <mxPoint x="545" y="80" as="targetPoint" />
            <Array as="points">
              <mxPoint x="652" y="340" />
              <mxPoint x="195" y="340" />
            </Array>
          </mxGeometry>
        </mxCell>
        <mxCell id="O0w1MtwwYmEYep5A5iv1-189" value="" style="dashed=1;dashPattern=8 4;endArrow=blockThin;endFill=1;startArrow=oval;startFill=0;endSize=6;startSize=4;html=1;rounded=0;exitX=1;exitY=0.5;exitDx=0;exitDy=0;exitPerimeter=0;entryX=0.5;entryY=1;entryDx=0;entryDy=0;entryPerimeter=0;edgeStyle=orthogonalEdgeStyle;" edge="1" parent="O0w1MtwwYmEYep5A5iv1-1" source="O0w1MtwwYmEYep5A5iv1-173" target="O0w1MtwwYmEYep5A5iv1-188">
          <mxGeometry width="160" relative="1" as="geometry">
            <mxPoint x="212" y="91" as="sourcePoint" />
            <mxPoint x="212" y="165" as="targetPoint" />
          </mxGeometry>
        </mxCell>
        <mxCell id="O0w1MtwwYmEYep5A5iv1-39" value="&lt;font face=&quot;Times New Roman&quot;&gt;&lt;span style=&quot;font-size: 14px; font-weight: 400;&quot;&gt;Редактор&lt;/span&gt;&lt;/font&gt;" style="swimlane;html=1;startSize=70;horizontal=0;" vertex="1" parent="O0w1MtwwYmEYep5A5iv1-1">
          <mxGeometry x="20" y="313" width="1430" height="220" as="geometry" />
        </mxCell>
        <mxCell id="O0w1MtwwYmEYep5A5iv1-43" style="edgeStyle=orthogonalEdgeStyle;rounded=0;orthogonalLoop=1;jettySize=auto;html=1;exitX=1;exitY=0.5;exitDx=0;exitDy=0;exitPerimeter=0;entryX=0;entryY=0.5;entryDx=0;entryDy=0;entryPerimeter=0;" edge="1" parent="O0w1MtwwYmEYep5A5iv1-39" target="O0w1MtwwYmEYep5A5iv1-42">
          <mxGeometry relative="1" as="geometry">
            <mxPoint x="775" y="35" as="sourcePoint" />
          </mxGeometry>
        </mxCell>
        <mxCell id="O0w1MtwwYmEYep5A5iv1-45" style="edgeStyle=orthogonalEdgeStyle;rounded=0;orthogonalLoop=1;jettySize=auto;html=1;exitX=1;exitY=0.5;exitDx=0;exitDy=0;exitPerimeter=0;entryX=0;entryY=0.5;entryDx=0;entryDy=0;entryPerimeter=0;" edge="1" parent="O0w1MtwwYmEYep5A5iv1-39" target="O0w1MtwwYmEYep5A5iv1-44">
          <mxGeometry relative="1" as="geometry">
            <mxPoint x="930" y="35" as="sourcePoint" />
          </mxGeometry>
        </mxCell>
        <mxCell id="O0w1MtwwYmEYep5A5iv1-82" value="&lt;font face=&quot;Times New Roman&quot;&gt;Новостной&lt;/font&gt;&lt;div&gt;&lt;font face=&quot;ooApfUwmyKIRAOGGmHdr&quot;&gt;документ&lt;/font&gt;&lt;/div&gt;" style="points=[[0.145,0.145,0],[0.5,0,0],[0.855,0.145,0],[1,0.5,0],[0.855,0.855,0],[0.5,1,0],[0.145,0.855,0],[0,0.5,0]];shape=mxgraph.bpmn.event;html=1;verticalLabelPosition=bottom;labelBackgroundColor=#ffffff;verticalAlign=top;align=center;perimeter=ellipsePerimeter;outlineConnect=0;aspect=fixed;outline=standard;symbol=message;labelPosition=center;" vertex="1" parent="O0w1MtwwYmEYep5A5iv1-39">
          <mxGeometry x="160" y="110" width="30" height="30" as="geometry" />
        </mxCell>
        <mxCell id="O0w1MtwwYmEYep5A5iv1-164" value="&lt;font face=&quot;Times New Roman&quot;&gt;&lt;span style=&quot;font-size: 14px;&quot;&gt;Проверить, является ли документ новостью&lt;/span&gt;&lt;/font&gt;" style="points=[[0.25,0,0],[0.5,0,0],[0.75,0,0],[1,0.25,0],[1,0.5,0],[1,0.75,0],[0.75,1,0],[0.5,1,0],[0.25,1,0],[0,0.75,0],[0,0.5,0],[0,0.25,0]];shape=mxgraph.bpmn.task;whiteSpace=wrap;rectStyle=rounded;size=10;html=1;container=1;expand=0;collapsible=0;taskMarker=abstract;strokeColor=default;align=center;verticalAlign=middle;fontFamily=Helvetica;fontSize=12;fontColor=default;fillColor=default;" vertex="1" parent="O0w1MtwwYmEYep5A5iv1-39">
          <mxGeometry x="317.5" y="139.5" width="150" height="53" as="geometry" />
        </mxCell>
        <mxCell id="O0w1MtwwYmEYep5A5iv1-165" value="" style="points=[[0.25,0.25,0],[0.5,0,0],[0.75,0.25,0],[1,0.5,0],[0.75,0.75,0],[0.5,1,0],[0.25,0.75,0],[0,0.5,0]];shape=mxgraph.bpmn.gateway2;html=1;verticalLabelPosition=bottom;labelBackgroundColor=#ffffff;verticalAlign=top;align=center;perimeter=rhombusPerimeter;outlineConnect=0;outline=none;symbol=none;gwType=exclusive;" vertex="1" parent="O0w1MtwwYmEYep5A5iv1-39">
          <mxGeometry x="507.5" y="141" width="50" height="50" as="geometry" />
        </mxCell>
        <mxCell id="O0w1MtwwYmEYep5A5iv1-169" style="edgeStyle=orthogonalEdgeStyle;rounded=0;orthogonalLoop=1;jettySize=auto;html=1;exitX=1;exitY=0.5;exitDx=0;exitDy=0;exitPerimeter=0;entryX=0;entryY=0.5;entryDx=0;entryDy=0;entryPerimeter=0;" edge="1" parent="O0w1MtwwYmEYep5A5iv1-39" source="O0w1MtwwYmEYep5A5iv1-164" target="O0w1MtwwYmEYep5A5iv1-165">
          <mxGeometry relative="1" as="geometry" />
        </mxCell>
        <mxCell id="O0w1MtwwYmEYep5A5iv1-170" value="&lt;font face=&quot;Times New Roman&quot;&gt;Не новость&lt;/font&gt;" style="dashed=1;dashPattern=8 4;endArrow=blockThin;endFill=1;startArrow=oval;startFill=0;endSize=6;startSize=4;html=1;rounded=0;exitX=0.5;exitY=0;exitDx=0;exitDy=0;exitPerimeter=0;" edge="1" parent="O0w1MtwwYmEYep5A5iv1-39" source="O0w1MtwwYmEYep5A5iv1-165" target="O0w1MtwwYmEYep5A5iv1-176">
          <mxGeometry width="160" relative="1" as="geometry">
            <mxPoint x="-280.5" y="-396.5" as="sourcePoint" />
            <mxPoint x="532.5" y="89.5" as="targetPoint" />
          </mxGeometry>
        </mxCell>
        <mxCell id="O0w1MtwwYmEYep5A5iv1-171" value="" style="points=[[0.145,0.145,0],[0.5,0,0],[0.855,0.145,0],[1,0.5,0],[0.855,0.855,0],[0.5,1,0],[0.145,0.855,0],[0,0.5,0]];shape=mxgraph.bpmn.event;html=1;verticalLabelPosition=bottom;labelBackgroundColor=#ffffff;verticalAlign=middle;align=center;perimeter=ellipsePerimeter;outlineConnect=0;aspect=fixed;outline=standard;symbol=general;strokeColor=default;fontFamily=Helvetica;fontSize=12;fontColor=default;fillColor=default;" vertex="1" parent="O0w1MtwwYmEYep5A5iv1-39">
          <mxGeometry x="247.5" y="151" width="31.5" height="31.5" as="geometry" />
        </mxCell>
        <mxCell id="O0w1MtwwYmEYep5A5iv1-172" style="edgeStyle=orthogonalEdgeStyle;rounded=0;orthogonalLoop=1;jettySize=auto;html=1;exitX=1;exitY=0.5;exitDx=0;exitDy=0;exitPerimeter=0;entryX=0;entryY=0.5;entryDx=0;entryDy=0;entryPerimeter=0;" edge="1" parent="O0w1MtwwYmEYep5A5iv1-39" source="O0w1MtwwYmEYep5A5iv1-171" target="O0w1MtwwYmEYep5A5iv1-164">
          <mxGeometry relative="1" as="geometry" />
        </mxCell>
        <mxCell id="O0w1MtwwYmEYep5A5iv1-173" value="Аннотировать документ" style="points=[[0.25,0,0],[0.5,0,0],[0.75,0,0],[1,0.25,0],[1,0.5,0],[1,0.75,0],[0.75,1,0],[0.5,1,0],[0.25,1,0],[0,0.75,0],[0,0.5,0],[0,0.25,0]];shape=mxgraph.bpmn.task;whiteSpace=wrap;rectStyle=rounded;size=10;html=1;container=1;expand=0;collapsible=0;taskMarker=abstract;align=left;verticalAlign=top;fillColor=none;" vertex="1" parent="O0w1MtwwYmEYep5A5iv1-39">
          <mxGeometry x="220" y="47.5" width="630" height="155" as="geometry" />
        </mxCell>
        <mxCell id="O0w1MtwwYmEYep5A5iv1-174" value="&lt;font face=&quot;Times New Roman&quot;&gt;&lt;span style=&quot;font-size: 14px;&quot;&gt;Определить&lt;/span&gt;&lt;/font&gt;&lt;div&gt;&lt;font face=&quot;Times New Roman&quot;&gt;&lt;span style=&quot;font-size: 14px;&quot;&gt;язык&lt;/span&gt;&lt;/font&gt;&lt;/div&gt;" style="points=[[0.25,0,0],[0.5,0,0],[0.75,0,0],[1,0.25,0],[1,0.5,0],[1,0.75,0],[0.75,1,0],[0.5,1,0],[0.25,1,0],[0,0.75,0],[0,0.5,0],[0,0.25,0]];shape=mxgraph.bpmn.task;whiteSpace=wrap;rectStyle=rounded;size=10;html=1;container=1;expand=0;collapsible=0;taskMarker=abstract;strokeColor=default;align=center;verticalAlign=middle;fontFamily=Helvetica;fontSize=12;fontColor=default;fillColor=default;" vertex="1" parent="O0w1MtwwYmEYep5A5iv1-173">
          <mxGeometry x="410" y="40" width="110" height="43" as="geometry" />
        </mxCell>
        <mxCell id="O0w1MtwwYmEYep5A5iv1-179" value="&lt;font face=&quot;Times New Roman&quot;&gt;&lt;span style=&quot;font-size: 14px;&quot;&gt;Определить категорию&lt;/span&gt;&lt;/font&gt;" style="points=[[0.25,0,0],[0.5,0,0],[0.75,0,0],[1,0.25,0],[1,0.5,0],[1,0.75,0],[0.75,1,0],[0.5,1,0],[0.25,1,0],[0,0.75,0],[0,0.5,0],[0,0.25,0]];shape=mxgraph.bpmn.task;whiteSpace=wrap;rectStyle=rounded;size=10;html=1;container=1;expand=0;collapsible=0;taskMarker=abstract;strokeColor=default;align=center;verticalAlign=middle;fontFamily=Helvetica;fontSize=12;fontColor=default;fillColor=default;" vertex="1" parent="O0w1MtwwYmEYep5A5iv1-173">
          <mxGeometry x="410" y="103.5" width="110" height="43" as="geometry" />
        </mxCell>
        <mxCell id="O0w1MtwwYmEYep5A5iv1-187" style="edgeStyle=orthogonalEdgeStyle;rounded=0;orthogonalLoop=1;jettySize=auto;html=1;exitX=0.5;exitY=1;exitDx=0;exitDy=0;exitPerimeter=0;entryX=0.5;entryY=0;entryDx=0;entryDy=0;entryPerimeter=0;" edge="1" parent="O0w1MtwwYmEYep5A5iv1-173" source="O0w1MtwwYmEYep5A5iv1-174" target="O0w1MtwwYmEYep5A5iv1-179">
          <mxGeometry relative="1" as="geometry" />
        </mxCell>
        <mxCell id="O0w1MtwwYmEYep5A5iv1-184" value="" style="points=[[0.145,0.145,0],[0.5,0,0],[0.855,0.145,0],[1,0.5,0],[0.855,0.855,0],[0.5,1,0],[0.145,0.855,0],[0,0.5,0]];shape=mxgraph.bpmn.event;html=1;verticalLabelPosition=bottom;labelBackgroundColor=#ffffff;verticalAlign=top;align=center;perimeter=ellipsePerimeter;outlineConnect=0;aspect=fixed;outline=end;symbol=terminate2;" vertex="1" parent="O0w1MtwwYmEYep5A5iv1-173">
          <mxGeometry x="569.9986597938145" y="112.01" width="25.97938144329897" height="25.97938144329897" as="geometry" />
        </mxCell>
        <mxCell id="O0w1MtwwYmEYep5A5iv1-185" style="edgeStyle=orthogonalEdgeStyle;rounded=0;orthogonalLoop=1;jettySize=auto;html=1;exitX=1;exitY=0.5;exitDx=0;exitDy=0;exitPerimeter=0;entryX=0;entryY=0.5;entryDx=0;entryDy=0;entryPerimeter=0;" edge="1" parent="O0w1MtwwYmEYep5A5iv1-173" source="O0w1MtwwYmEYep5A5iv1-179" target="O0w1MtwwYmEYep5A5iv1-184">
          <mxGeometry relative="1" as="geometry" />
        </mxCell>
        <mxCell id="O0w1MtwwYmEYep5A5iv1-175" value="&lt;font face=&quot;Times New Roman&quot;&gt;Новость&lt;/font&gt;" style="dashed=1;dashPattern=8 4;endArrow=blockThin;endFill=1;startArrow=oval;startFill=0;endSize=6;startSize=4;html=1;rounded=0;exitX=1;exitY=0.5;exitDx=0;exitDy=0;exitPerimeter=0;entryX=0;entryY=0.5;entryDx=0;entryDy=0;entryPerimeter=0;edgeStyle=orthogonalEdgeStyle;" edge="1" parent="O0w1MtwwYmEYep5A5iv1-39" source="O0w1MtwwYmEYep5A5iv1-165" target="O0w1MtwwYmEYep5A5iv1-174">
          <mxGeometry width="160" relative="1" as="geometry">
            <mxPoint x="542.5" y="151.5" as="sourcePoint" />
            <mxPoint x="542.5" y="99.5" as="targetPoint" />
          </mxGeometry>
        </mxCell>
        <mxCell id="O0w1MtwwYmEYep5A5iv1-176" value="" style="points=[[0.145,0.145,0],[0.5,0,0],[0.855,0.145,0],[1,0.5,0],[0.855,0.855,0],[0.5,1,0],[0.145,0.855,0],[0,0.5,0]];shape=mxgraph.bpmn.event;html=1;verticalLabelPosition=top;labelBackgroundColor=#ffffff;verticalAlign=bottom;align=center;perimeter=ellipsePerimeter;outlineConnect=0;aspect=fixed;outline=end;symbol=error;labelPosition=center;" vertex="1" parent="O0w1MtwwYmEYep5A5iv1-39">
          <mxGeometry x="517.5" y="59.5" width="30" height="30" as="geometry" />
        </mxCell>
        <mxCell id="O0w1MtwwYmEYep5A5iv1-186" style="edgeStyle=orthogonalEdgeStyle;rounded=0;orthogonalLoop=1;jettySize=auto;html=1;exitX=1;exitY=0.5;exitDx=0;exitDy=0;exitPerimeter=0;entryX=0;entryY=0.5;entryDx=0;entryDy=0;entryPerimeter=0;" edge="1" parent="O0w1MtwwYmEYep5A5iv1-39" source="O0w1MtwwYmEYep5A5iv1-82" target="O0w1MtwwYmEYep5A5iv1-173">
          <mxGeometry relative="1" as="geometry" />
        </mxCell>
        <mxCell id="O0w1MtwwYmEYep5A5iv1-210" value="&lt;font size=&quot;4&quot; face=&quot;Times New Roman&quot;&gt;&lt;span style=&quot;font-weight: 400;&quot;&gt;Агрегация новостных сюжетов&lt;/span&gt;&lt;/font&gt;" style="swimlane;html=1;childLayout=stackLayout;resizeParent=1;resizeParentMax=0;horizontal=0;startSize=20;horizontalStack=0;whiteSpace=wrap;" vertex="1" parent="1">
          <mxGeometry x="60" y="760" width="1240" height="350" as="geometry" />
        </mxCell>
        <mxCell id="O0w1MtwwYmEYep5A5iv1-242" value="&lt;font face=&quot;Times New Roman&quot;&gt;&lt;span style=&quot;font-size: 14px; font-weight: 400;&quot;&gt;RSS feed&lt;/span&gt;&lt;/font&gt;" style="swimlane;html=1;startSize=70;horizontal=0;strokeColor=default;" vertex="1" parent="O0w1MtwwYmEYep5A5iv1-210">
          <mxGeometry x="20" width="1220" height="120" as="geometry" />
        </mxCell>
        <mxCell id="O0w1MtwwYmEYep5A5iv1-243" style="edgeStyle=orthogonalEdgeStyle;rounded=0;orthogonalLoop=1;jettySize=auto;html=1;exitX=1;exitY=0.5;exitDx=0;exitDy=0;exitPerimeter=0;" edge="1" parent="O0w1MtwwYmEYep5A5iv1-242">
          <mxGeometry relative="1" as="geometry">
            <mxPoint x="360" y="60" as="targetPoint" />
          </mxGeometry>
        </mxCell>
        <mxCell id="O0w1MtwwYmEYep5A5iv1-244" style="edgeStyle=orthogonalEdgeStyle;rounded=0;orthogonalLoop=1;jettySize=auto;html=1;exitX=1;exitY=0.5;exitDx=0;exitDy=0;exitPerimeter=0;entryX=0;entryY=0.5;entryDx=0;entryDy=0;entryPerimeter=0;" edge="1" parent="O0w1MtwwYmEYep5A5iv1-242">
          <mxGeometry relative="1" as="geometry">
            <mxPoint x="450" y="60" as="sourcePoint" />
          </mxGeometry>
        </mxCell>
        <mxCell id="O0w1MtwwYmEYep5A5iv1-249" style="edgeStyle=orthogonalEdgeStyle;rounded=0;orthogonalLoop=1;jettySize=auto;html=1;exitX=1;exitY=0.5;exitDx=0;exitDy=0;exitPerimeter=0;entryX=0;entryY=0.5;entryDx=0;entryDy=0;entryPerimeter=0;" edge="1" parent="O0w1MtwwYmEYep5A5iv1-242" target="O0w1MtwwYmEYep5A5iv1-248">
          <mxGeometry relative="1" as="geometry">
            <mxPoint x="353" y="60" as="sourcePoint" />
          </mxGeometry>
        </mxCell>
        <mxCell id="O0w1MtwwYmEYep5A5iv1-279" value="&lt;font face=&quot;Times New Roman&quot;&gt;Каждый час&lt;/font&gt;" style="points=[[0.145,0.145,0],[0.5,0,0],[0.855,0.145,0],[1,0.5,0],[0.855,0.855,0],[0.5,1,0],[0.145,0.855,0],[0,0.5,0]];shape=mxgraph.bpmn.event;html=1;verticalLabelPosition=bottom;labelBackgroundColor=#ffffff;verticalAlign=top;align=center;perimeter=ellipsePerimeter;outlineConnect=0;aspect=fixed;outline=standard;symbol=timer;" vertex="1" parent="O0w1MtwwYmEYep5A5iv1-242">
          <mxGeometry x="100" y="42.5" width="35" height="35" as="geometry" />
        </mxCell>
        <mxCell id="O0w1MtwwYmEYep5A5iv1-280" value="&lt;font face=&quot;Times New Roman&quot;&gt;&lt;span style=&quot;font-size: 14px;&quot;&gt;Отдать список докуметнов&lt;/span&gt;&lt;/font&gt;" style="points=[[0.25,0,0],[0.5,0,0],[0.75,0,0],[1,0.25,0],[1,0.5,0],[1,0.75,0],[0.75,1,0],[0.5,1,0],[0.25,1,0],[0,0.75,0],[0,0.5,0],[0,0.25,0]];shape=mxgraph.bpmn.task;whiteSpace=wrap;rectStyle=rounded;size=10;html=1;container=1;expand=0;collapsible=0;taskMarker=abstract;strokeColor=default;align=center;verticalAlign=middle;fontFamily=Helvetica;fontSize=12;fontColor=default;fillColor=default;" vertex="1" parent="O0w1MtwwYmEYep5A5iv1-242">
          <mxGeometry x="180" y="33.5" width="103" height="53" as="geometry" />
        </mxCell>
        <mxCell id="O0w1MtwwYmEYep5A5iv1-281" style="edgeStyle=orthogonalEdgeStyle;rounded=0;orthogonalLoop=1;jettySize=auto;html=1;exitX=1;exitY=0.5;exitDx=0;exitDy=0;exitPerimeter=0;entryX=0;entryY=0.5;entryDx=0;entryDy=0;entryPerimeter=0;" edge="1" parent="O0w1MtwwYmEYep5A5iv1-242" source="O0w1MtwwYmEYep5A5iv1-279" target="O0w1MtwwYmEYep5A5iv1-280">
          <mxGeometry relative="1" as="geometry" />
        </mxCell>
        <mxCell id="O0w1MtwwYmEYep5A5iv1-260" value="&lt;font face=&quot;Times New Roman&quot;&gt;&lt;span style=&quot;font-size: 14px; font-weight: 400;&quot;&gt;Сервис-агрегатор&lt;/span&gt;&lt;/font&gt;&lt;div&gt;&lt;font face=&quot;Times New Roman&quot;&gt;&lt;span style=&quot;font-size: 14px; font-weight: 400;&quot;&gt;документов&lt;/span&gt;&lt;/font&gt;&lt;/div&gt;" style="swimlane;html=1;startSize=70;horizontal=0;" vertex="1" parent="O0w1MtwwYmEYep5A5iv1-210">
          <mxGeometry x="20" y="120" width="1220" height="230" as="geometry" />
        </mxCell>
        <mxCell id="O0w1MtwwYmEYep5A5iv1-261" style="edgeStyle=orthogonalEdgeStyle;rounded=0;orthogonalLoop=1;jettySize=auto;html=1;exitX=1;exitY=0.5;exitDx=0;exitDy=0;exitPerimeter=0;entryX=0;entryY=0.5;entryDx=0;entryDy=0;entryPerimeter=0;" edge="1" parent="O0w1MtwwYmEYep5A5iv1-260">
          <mxGeometry relative="1" as="geometry">
            <mxPoint x="775" y="35" as="sourcePoint" />
          </mxGeometry>
        </mxCell>
        <mxCell id="O0w1MtwwYmEYep5A5iv1-262" style="edgeStyle=orthogonalEdgeStyle;rounded=0;orthogonalLoop=1;jettySize=auto;html=1;exitX=1;exitY=0.5;exitDx=0;exitDy=0;exitPerimeter=0;entryX=0;entryY=0.5;entryDx=0;entryDy=0;entryPerimeter=0;" edge="1" parent="O0w1MtwwYmEYep5A5iv1-260">
          <mxGeometry relative="1" as="geometry">
            <mxPoint x="930" y="35" as="sourcePoint" />
          </mxGeometry>
        </mxCell>
        <mxCell id="O0w1MtwwYmEYep5A5iv1-266" style="edgeStyle=orthogonalEdgeStyle;rounded=0;orthogonalLoop=1;jettySize=auto;html=1;exitX=1;exitY=0.5;exitDx=0;exitDy=0;exitPerimeter=0;entryX=0;entryY=0.5;entryDx=0;entryDy=0;entryPerimeter=0;" edge="1" parent="O0w1MtwwYmEYep5A5iv1-260" source="O0w1MtwwYmEYep5A5iv1-264">
          <mxGeometry relative="1" as="geometry">
            <mxPoint x="507.5" y="166" as="targetPoint" />
          </mxGeometry>
        </mxCell>
        <mxCell id="O0w1MtwwYmEYep5A5iv1-267" value="&lt;font face=&quot;Times New Roman&quot;&gt;Не новость&lt;/font&gt;" style="dashed=1;dashPattern=8 4;endArrow=blockThin;endFill=1;startArrow=oval;startFill=0;endSize=6;startSize=4;html=1;rounded=0;exitX=0.5;exitY=0;exitDx=0;exitDy=0;exitPerimeter=0;" edge="1" parent="O0w1MtwwYmEYep5A5iv1-260" source="O0w1MtwwYmEYep5A5iv1-265">
          <mxGeometry width="160" relative="1" as="geometry">
            <mxPoint x="-280.5" y="-396.5" as="sourcePoint" />
            <mxPoint x="532.5" y="89.5" as="targetPoint" />
          </mxGeometry>
        </mxCell>
        <mxCell id="O0w1MtwwYmEYep5A5iv1-269" style="edgeStyle=orthogonalEdgeStyle;rounded=0;orthogonalLoop=1;jettySize=auto;html=1;exitX=1;exitY=0.5;exitDx=0;exitDy=0;exitPerimeter=0;entryX=0;entryY=0.5;entryDx=0;entryDy=0;entryPerimeter=0;" edge="1" parent="O0w1MtwwYmEYep5A5iv1-260" source="O0w1MtwwYmEYep5A5iv1-268">
          <mxGeometry relative="1" as="geometry">
            <mxPoint x="317.5" y="166" as="targetPoint" />
          </mxGeometry>
        </mxCell>
        <mxCell id="O0w1MtwwYmEYep5A5iv1-282" value="&lt;font face=&quot;Times New Roman&quot;&gt;JSON список&lt;/font&gt;&lt;div&gt;&lt;font face=&quot;Times New Roman&quot;&gt;документов&lt;/font&gt;&lt;/div&gt;" style="points=[[0.145,0.145,0],[0.5,0,0],[0.855,0.145,0],[1,0.5,0],[0.855,0.855,0],[0.5,1,0],[0.145,0.855,0],[0,0.5,0]];shape=mxgraph.bpmn.event;html=1;verticalLabelPosition=bottom;labelBackgroundColor=#ffffff;verticalAlign=top;align=center;perimeter=ellipsePerimeter;outlineConnect=0;aspect=fixed;outline=standard;symbol=message;labelPosition=center;" vertex="1" parent="O0w1MtwwYmEYep5A5iv1-260">
          <mxGeometry x="216.5" y="102.5" width="30" height="30" as="geometry" />
        </mxCell>
        <mxCell id="O0w1MtwwYmEYep5A5iv1-284" value="&lt;font face=&quot;Times New Roman&quot;&gt;&lt;span style=&quot;font-size: 14px;&quot;&gt;Проверить, является ли документ новостью&lt;/span&gt;&lt;/font&gt;" style="points=[[0.25,0,0],[0.5,0,0],[0.75,0,0],[1,0.25,0],[1,0.5,0],[1,0.75,0],[0.75,1,0],[0.5,1,0],[0.25,1,0],[0,0.75,0],[0,0.5,0],[0,0.25,0]];shape=mxgraph.bpmn.task;whiteSpace=wrap;rectStyle=rounded;size=10;html=1;container=1;expand=0;collapsible=0;taskMarker=abstract;strokeColor=default;align=center;verticalAlign=middle;fontFamily=Helvetica;fontSize=12;fontColor=default;fillColor=default;" vertex="1" parent="O0w1MtwwYmEYep5A5iv1-260">
          <mxGeometry x="397.5" y="117" width="150" height="53" as="geometry" />
        </mxCell>
        <mxCell id="O0w1MtwwYmEYep5A5iv1-285" value="" style="points=[[0.25,0.25,0],[0.5,0,0],[0.75,0.25,0],[1,0.5,0],[0.75,0.75,0],[0.5,1,0],[0.25,0.75,0],[0,0.5,0]];shape=mxgraph.bpmn.gateway2;html=1;verticalLabelPosition=bottom;labelBackgroundColor=#ffffff;verticalAlign=top;align=center;perimeter=rhombusPerimeter;outlineConnect=0;outline=none;symbol=none;gwType=exclusive;" vertex="1" parent="O0w1MtwwYmEYep5A5iv1-260">
          <mxGeometry x="587.5" y="118.5" width="50" height="50" as="geometry" />
        </mxCell>
        <mxCell id="O0w1MtwwYmEYep5A5iv1-286" style="edgeStyle=orthogonalEdgeStyle;rounded=0;orthogonalLoop=1;jettySize=auto;html=1;exitX=1;exitY=0.5;exitDx=0;exitDy=0;exitPerimeter=0;entryX=0;entryY=0.5;entryDx=0;entryDy=0;entryPerimeter=0;" edge="1" parent="O0w1MtwwYmEYep5A5iv1-260" source="O0w1MtwwYmEYep5A5iv1-284" target="O0w1MtwwYmEYep5A5iv1-285">
          <mxGeometry relative="1" as="geometry" />
        </mxCell>
        <mxCell id="O0w1MtwwYmEYep5A5iv1-287" value="&lt;font face=&quot;Times New Roman&quot;&gt;Не новость&lt;/font&gt;" style="dashed=1;dashPattern=8 4;endArrow=blockThin;endFill=1;startArrow=oval;startFill=0;endSize=6;startSize=4;html=1;rounded=0;exitX=0.5;exitY=0;exitDx=0;exitDy=0;exitPerimeter=0;" edge="1" parent="O0w1MtwwYmEYep5A5iv1-260" source="O0w1MtwwYmEYep5A5iv1-285" target="O0w1MtwwYmEYep5A5iv1-297">
          <mxGeometry width="160" relative="1" as="geometry">
            <mxPoint x="-200.5" y="-419" as="sourcePoint" />
            <mxPoint x="612.5" y="67" as="targetPoint" />
          </mxGeometry>
        </mxCell>
        <mxCell id="O0w1MtwwYmEYep5A5iv1-288" value="" style="points=[[0.145,0.145,0],[0.5,0,0],[0.855,0.145,0],[1,0.5,0],[0.855,0.855,0],[0.5,1,0],[0.145,0.855,0],[0,0.5,0]];shape=mxgraph.bpmn.event;html=1;verticalLabelPosition=bottom;labelBackgroundColor=#ffffff;verticalAlign=middle;align=center;perimeter=ellipsePerimeter;outlineConnect=0;aspect=fixed;outline=standard;symbol=general;strokeColor=default;fontFamily=Helvetica;fontSize=12;fontColor=default;fillColor=default;" vertex="1" parent="O0w1MtwwYmEYep5A5iv1-260">
          <mxGeometry x="327.5" y="128.5" width="31.5" height="31.5" as="geometry" />
        </mxCell>
        <mxCell id="O0w1MtwwYmEYep5A5iv1-289" style="edgeStyle=orthogonalEdgeStyle;rounded=0;orthogonalLoop=1;jettySize=auto;html=1;exitX=1;exitY=0.5;exitDx=0;exitDy=0;exitPerimeter=0;entryX=0;entryY=0.5;entryDx=0;entryDy=0;entryPerimeter=0;" edge="1" parent="O0w1MtwwYmEYep5A5iv1-260" source="O0w1MtwwYmEYep5A5iv1-288" target="O0w1MtwwYmEYep5A5iv1-284">
          <mxGeometry relative="1" as="geometry" />
        </mxCell>
        <mxCell id="O0w1MtwwYmEYep5A5iv1-290" value="Аннотировать документ" style="points=[[0.25,0,0],[0.5,0,0],[0.75,0,0],[1,0.25,0],[1,0.5,0],[1,0.75,0],[0.75,1,0],[0.5,1,0],[0.25,1,0],[0,0.75,0],[0,0.5,0],[0,0.25,0]];shape=mxgraph.bpmn.task;whiteSpace=wrap;rectStyle=rounded;size=10;html=1;container=1;expand=0;collapsible=0;taskMarker=abstract;align=left;verticalAlign=top;fillColor=none;" vertex="1" parent="O0w1MtwwYmEYep5A5iv1-260">
          <mxGeometry x="300" y="25" width="630" height="185" as="geometry" />
        </mxCell>
        <mxCell id="O0w1MtwwYmEYep5A5iv1-291" value="&lt;font face=&quot;Times New Roman&quot;&gt;&lt;span style=&quot;font-size: 14px;&quot;&gt;Определить&lt;/span&gt;&lt;/font&gt;&lt;div&gt;&lt;font face=&quot;Times New Roman&quot;&gt;&lt;span style=&quot;font-size: 14px;&quot;&gt;язык&lt;/span&gt;&lt;/font&gt;&lt;/div&gt;" style="points=[[0.25,0,0],[0.5,0,0],[0.75,0,0],[1,0.25,0],[1,0.5,0],[1,0.75,0],[0.75,1,0],[0.5,1,0],[0.25,1,0],[0,0.75,0],[0,0.5,0],[0,0.25,0]];shape=mxgraph.bpmn.task;whiteSpace=wrap;rectStyle=rounded;size=10;html=1;container=1;expand=0;collapsible=0;taskMarker=abstract;strokeColor=default;align=center;verticalAlign=middle;fontFamily=Helvetica;fontSize=12;fontColor=default;fillColor=default;" vertex="1" parent="O0w1MtwwYmEYep5A5iv1-290">
          <mxGeometry x="410" y="8.35" width="110" height="41.65" as="geometry" />
        </mxCell>
        <mxCell id="O0w1MtwwYmEYep5A5iv1-292" value="&lt;font face=&quot;Times New Roman&quot;&gt;&lt;span style=&quot;font-size: 14px;&quot;&gt;Определить категорию&lt;/span&gt;&lt;/font&gt;" style="points=[[0.25,0,0],[0.5,0,0],[0.75,0,0],[1,0.25,0],[1,0.5,0],[1,0.75,0],[0.75,1,0],[0.5,1,0],[0.25,1,0],[0,0.75,0],[0,0.5,0],[0,0.25,0]];shape=mxgraph.bpmn.task;whiteSpace=wrap;rectStyle=rounded;size=10;html=1;container=1;expand=0;collapsible=0;taskMarker=abstract;strokeColor=default;align=center;verticalAlign=middle;fontFamily=Helvetica;fontSize=12;fontColor=default;fillColor=default;" vertex="1" parent="O0w1MtwwYmEYep5A5iv1-290">
          <mxGeometry x="410" y="70" width="110" height="42.51" as="geometry" />
        </mxCell>
        <mxCell id="O0w1MtwwYmEYep5A5iv1-293" style="edgeStyle=orthogonalEdgeStyle;rounded=0;orthogonalLoop=1;jettySize=auto;html=1;exitX=0.5;exitY=1;exitDx=0;exitDy=0;exitPerimeter=0;entryX=0.5;entryY=0;entryDx=0;entryDy=0;entryPerimeter=0;" edge="1" parent="O0w1MtwwYmEYep5A5iv1-290" source="O0w1MtwwYmEYep5A5iv1-291" target="O0w1MtwwYmEYep5A5iv1-292">
          <mxGeometry relative="1" as="geometry" />
        </mxCell>
        <mxCell id="O0w1MtwwYmEYep5A5iv1-294" value="" style="points=[[0.145,0.145,0],[0.5,0,0],[0.855,0.145,0],[1,0.5,0],[0.855,0.855,0],[0.5,1,0],[0.145,0.855,0],[0,0.5,0]];shape=mxgraph.bpmn.event;html=1;verticalLabelPosition=bottom;labelBackgroundColor=#ffffff;verticalAlign=top;align=center;perimeter=ellipsePerimeter;outlineConnect=0;aspect=fixed;outline=end;symbol=terminate2;" vertex="1" parent="O0w1MtwwYmEYep5A5iv1-290">
          <mxGeometry x="569.9986597938145" y="141.50935483870967" width="25.97938144329897" height="25.97938144329897" as="geometry" />
        </mxCell>
        <mxCell id="O0w1MtwwYmEYep5A5iv1-299" value="&lt;font face=&quot;Times New Roman&quot;&gt;&lt;span style=&quot;font-size: 14px;&quot;&gt;Обработать текст документа&lt;/span&gt;&lt;/font&gt;" style="points=[[0.25,0,0],[0.5,0,0],[0.75,0,0],[1,0.25,0],[1,0.5,0],[1,0.75,0],[0.75,1,0],[0.5,1,0],[0.25,1,0],[0,0.75,0],[0,0.5,0],[0,0.25,0]];shape=mxgraph.bpmn.task;whiteSpace=wrap;rectStyle=rounded;size=10;html=1;container=1;expand=0;collapsible=0;taskMarker=abstract;strokeColor=default;align=center;verticalAlign=middle;fontFamily=Helvetica;fontSize=12;fontColor=default;fillColor=default;" vertex="1" parent="O0w1MtwwYmEYep5A5iv1-290">
          <mxGeometry x="410" y="132" width="110" height="45" as="geometry" />
        </mxCell>
        <mxCell id="O0w1MtwwYmEYep5A5iv1-300" style="edgeStyle=orthogonalEdgeStyle;rounded=0;orthogonalLoop=1;jettySize=auto;html=1;exitX=0.5;exitY=1;exitDx=0;exitDy=0;exitPerimeter=0;entryX=0.5;entryY=0;entryDx=0;entryDy=0;entryPerimeter=0;" edge="1" parent="O0w1MtwwYmEYep5A5iv1-290" source="O0w1MtwwYmEYep5A5iv1-292" target="O0w1MtwwYmEYep5A5iv1-299">
          <mxGeometry relative="1" as="geometry" />
        </mxCell>
        <mxCell id="O0w1MtwwYmEYep5A5iv1-301" style="edgeStyle=orthogonalEdgeStyle;rounded=0;orthogonalLoop=1;jettySize=auto;html=1;exitX=1;exitY=0.5;exitDx=0;exitDy=0;exitPerimeter=0;entryX=0;entryY=0.5;entryDx=0;entryDy=0;entryPerimeter=0;" edge="1" parent="O0w1MtwwYmEYep5A5iv1-290" source="O0w1MtwwYmEYep5A5iv1-299" target="O0w1MtwwYmEYep5A5iv1-294">
          <mxGeometry relative="1" as="geometry" />
        </mxCell>
        <mxCell id="O0w1MtwwYmEYep5A5iv1-296" value="&lt;font face=&quot;Times New Roman&quot;&gt;Новость&lt;/font&gt;" style="dashed=1;dashPattern=8 4;endArrow=blockThin;endFill=1;startArrow=oval;startFill=0;endSize=6;startSize=4;html=1;rounded=0;exitX=1;exitY=0.5;exitDx=0;exitDy=0;exitPerimeter=0;entryX=0;entryY=0.5;entryDx=0;entryDy=0;entryPerimeter=0;edgeStyle=orthogonalEdgeStyle;" edge="1" parent="O0w1MtwwYmEYep5A5iv1-260" source="O0w1MtwwYmEYep5A5iv1-285" target="O0w1MtwwYmEYep5A5iv1-291">
          <mxGeometry width="160" relative="1" as="geometry">
            <mxPoint x="622.5" y="129" as="sourcePoint" />
            <mxPoint x="622.5" y="77" as="targetPoint" />
          </mxGeometry>
        </mxCell>
        <mxCell id="O0w1MtwwYmEYep5A5iv1-297" value="" style="points=[[0.145,0.145,0],[0.5,0,0],[0.855,0.145,0],[1,0.5,0],[0.855,0.855,0],[0.5,1,0],[0.145,0.855,0],[0,0.5,0]];shape=mxgraph.bpmn.event;html=1;verticalLabelPosition=top;labelBackgroundColor=#ffffff;verticalAlign=bottom;align=center;perimeter=ellipsePerimeter;outlineConnect=0;aspect=fixed;outline=end;symbol=error;labelPosition=center;" vertex="1" parent="O0w1MtwwYmEYep5A5iv1-260">
          <mxGeometry x="597.5" y="37" width="30" height="30" as="geometry" />
        </mxCell>
        <mxCell id="O0w1MtwwYmEYep5A5iv1-298" style="edgeStyle=orthogonalEdgeStyle;rounded=0;orthogonalLoop=1;jettySize=auto;html=1;exitX=1;exitY=0.5;exitDx=0;exitDy=0;exitPerimeter=0;entryX=0;entryY=0.5;entryDx=0;entryDy=0;entryPerimeter=0;" edge="1" parent="O0w1MtwwYmEYep5A5iv1-260" source="O0w1MtwwYmEYep5A5iv1-282" target="O0w1MtwwYmEYep5A5iv1-290">
          <mxGeometry relative="1" as="geometry" />
        </mxCell>
        <mxCell id="O0w1MtwwYmEYep5A5iv1-302" value="&lt;font face=&quot;Times New Roman&quot;&gt;&lt;span style=&quot;font-size: 14px;&quot;&gt;Определить кластеры документов&lt;/span&gt;&lt;/font&gt;" style="points=[[0.25,0,0],[0.5,0,0],[0.75,0,0],[1,0.25,0],[1,0.5,0],[1,0.75,0],[0.75,1,0],[0.5,1,0],[0.25,1,0],[0,0.75,0],[0,0.5,0],[0,0.25,0]];shape=mxgraph.bpmn.task;whiteSpace=wrap;rectStyle=rounded;size=10;html=1;container=1;expand=0;collapsible=0;taskMarker=abstract;strokeColor=default;align=center;verticalAlign=middle;fontFamily=Helvetica;fontSize=12;fontColor=default;fillColor=default;" vertex="1" parent="O0w1MtwwYmEYep5A5iv1-260">
          <mxGeometry x="980" y="85.84" width="140" height="63.32" as="geometry" />
        </mxCell>
        <mxCell id="O0w1MtwwYmEYep5A5iv1-303" style="edgeStyle=orthogonalEdgeStyle;rounded=0;orthogonalLoop=1;jettySize=auto;html=1;exitX=1;exitY=0.5;exitDx=0;exitDy=0;exitPerimeter=0;entryX=0;entryY=0.5;entryDx=0;entryDy=0;entryPerimeter=0;" edge="1" parent="O0w1MtwwYmEYep5A5iv1-260" source="O0w1MtwwYmEYep5A5iv1-290" target="O0w1MtwwYmEYep5A5iv1-302">
          <mxGeometry relative="1" as="geometry" />
        </mxCell>
        <mxCell id="O0w1MtwwYmEYep5A5iv1-304" value="" style="points=[[0.145,0.145,0],[0.5,0,0],[0.855,0.145,0],[1,0.5,0],[0.855,0.855,0],[0.5,1,0],[0.145,0.855,0],[0,0.5,0]];shape=mxgraph.bpmn.event;html=1;verticalLabelPosition=bottom;labelBackgroundColor=#ffffff;verticalAlign=top;align=center;perimeter=ellipsePerimeter;outlineConnect=0;aspect=fixed;outline=end;symbol=terminate2;" vertex="1" parent="O0w1MtwwYmEYep5A5iv1-260">
          <mxGeometry x="1159.9986597938146" y="104.50935483870967" width="25.97938144329897" height="25.97938144329897" as="geometry" />
        </mxCell>
        <mxCell id="O0w1MtwwYmEYep5A5iv1-305" style="edgeStyle=orthogonalEdgeStyle;rounded=0;orthogonalLoop=1;jettySize=auto;html=1;exitX=1;exitY=0.5;exitDx=0;exitDy=0;exitPerimeter=0;entryX=0;entryY=0.5;entryDx=0;entryDy=0;entryPerimeter=0;" edge="1" parent="O0w1MtwwYmEYep5A5iv1-260" source="O0w1MtwwYmEYep5A5iv1-302" target="O0w1MtwwYmEYep5A5iv1-304">
          <mxGeometry relative="1" as="geometry" />
        </mxCell>
        <mxCell id="O0w1MtwwYmEYep5A5iv1-283" value="" style="dashed=1;dashPattern=8 4;endArrow=blockThin;endFill=1;startArrow=oval;startFill=0;endSize=6;startSize=4;html=1;rounded=0;exitX=0.5;exitY=1;exitDx=0;exitDy=0;exitPerimeter=0;entryX=0.5;entryY=0;entryDx=0;entryDy=0;entryPerimeter=0;" edge="1" parent="O0w1MtwwYmEYep5A5iv1-210" source="O0w1MtwwYmEYep5A5iv1-280" target="O0w1MtwwYmEYep5A5iv1-282">
          <mxGeometry width="160" relative="1" as="geometry">
            <mxPoint x="212" y="-488" as="sourcePoint" />
            <mxPoint x="212" y="-332" as="targetPoint" />
          </mxGeometry>
        </mxCell>
      </root>
    </mxGraphModel>
  </diagram>
</mxfile>
